<mxfile host="app.diagrams.net" modified="2023-09-08T07:05:50.719Z" agent="Mozilla/5.0 (Windows NT 10.0; Win64; x64) AppleWebKit/537.36 (KHTML, like Gecko) Chrome/116.0.0.0 Safari/537.36" etag="xf1CbKF1S-jrx5sCjajE" version="21.7.2" type="device">
  <diagram name="Page-1" id="UXTOyUIrzZRnftEEWtT7">
    <mxGraphModel dx="1290" dy="585" grid="1" gridSize="10" guides="1" tooltips="1" connect="1" arrows="1" fold="1" page="1" pageScale="1" pageWidth="850" pageHeight="1100" math="0" shadow="0">
      <root>
        <mxCell id="0" />
        <mxCell id="1" parent="0" />
        <mxCell id="OHNvfokxidkYyMTphVtY-1" value="Category" style="rounded=0;whiteSpace=wrap;html=1;" vertex="1" parent="1">
          <mxGeometry x="555.5" y="452.5" width="120" height="60" as="geometry" />
        </mxCell>
        <mxCell id="OHNvfokxidkYyMTphVtY-2" value="Post" style="rounded=0;whiteSpace=wrap;html=1;" vertex="1" parent="1">
          <mxGeometry x="115" y="452.5" width="120" height="60" as="geometry" />
        </mxCell>
        <mxCell id="OHNvfokxidkYyMTphVtY-3" value="Tag" style="rounded=0;whiteSpace=wrap;html=1;" vertex="1" parent="1">
          <mxGeometry x="135.5" y="710" width="120" height="60" as="geometry" />
        </mxCell>
        <mxCell id="OHNvfokxidkYyMTphVtY-4" value="User Comments" style="rounded=0;whiteSpace=wrap;html=1;" vertex="1" parent="1">
          <mxGeometry x="595" y="710" width="120" height="60" as="geometry" />
        </mxCell>
        <mxCell id="OHNvfokxidkYyMTphVtY-5" value="&lt;b style=&quot;font-weight:normal;&quot; id=&quot;docs-internal-guid-73b793bf-7fff-7145-c773-e9d175866d5f&quot;&gt;&lt;ol style=&quot;margin-top:0;margin-bottom:0;padding-inline-start:48px;&quot;&gt;&lt;li dir=&quot;ltr&quot; style=&quot;list-style-type: lower-alpha; font-size: 11pt; font-family: Arial, sans-serif; color: rgb(0, 0, 0); background-color: transparent; font-weight: 400; font-style: normal; font-variant: normal; text-decoration: none; vertical-align: baseline; margin-left: 36pt;&quot; aria-level=&quot;2&quot;&gt;&lt;p dir=&quot;ltr&quot; style=&quot;line-height:1.38;margin-top:0pt;margin-bottom:0pt;&quot; role=&quot;presentation&quot;&gt;&lt;span style=&quot;font-size: 11pt; font-family: Arial, sans-serif; color: rgb(0, 0, 0); background-color: transparent; font-weight: 400; font-style: normal; font-variant: normal; text-decoration: none; vertical-align: baseline;&quot;&gt;Set up a database for blog posts, categories, tags, and user comments.&lt;/span&gt;&lt;/p&gt;&lt;/li&gt;&lt;li dir=&quot;ltr&quot; style=&quot;list-style-type: lower-alpha; font-size: 11pt; font-family: Arial, sans-serif; color: rgb(0, 0, 0); background-color: transparent; font-weight: 400; font-style: normal; font-variant: normal; text-decoration: none; vertical-align: baseline; margin-left: 36pt;&quot; aria-level=&quot;2&quot;&gt;&lt;p dir=&quot;ltr&quot; style=&quot;line-height:1.38;margin-top:0pt;margin-bottom:0pt;&quot; role=&quot;presentation&quot;&gt;&lt;span style=&quot;font-size: 11pt; font-family: Arial, sans-serif; color: rgb(0, 0, 0); background-color: transparent; font-weight: 400; font-style: normal; font-variant: normal; text-decoration: none; vertical-align: baseline;&quot;&gt;Implement SQL queries to display popular blog posts, manage comments, and categorize posts.&lt;/span&gt;&lt;/p&gt;&lt;/li&gt;&lt;/ol&gt;&lt;/b&gt;" style="text;whiteSpace=wrap;html=1;" vertex="1" parent="1">
          <mxGeometry x="20" y="10" width="420.5" height="100" as="geometry" />
        </mxCell>
        <mxCell id="OHNvfokxidkYyMTphVtY-6" value="Photo" style="ellipse;whiteSpace=wrap;html=1;" vertex="1" parent="1">
          <mxGeometry x="40" y="362.5" width="80" height="50" as="geometry" />
        </mxCell>
        <mxCell id="OHNvfokxidkYyMTphVtY-7" value="Video" style="ellipse;whiteSpace=wrap;html=1;" vertex="1" parent="1">
          <mxGeometry x="150" y="360" width="80" height="55" as="geometry" />
        </mxCell>
        <mxCell id="OHNvfokxidkYyMTphVtY-8" value="Article/Matter" style="ellipse;whiteSpace=wrap;html=1;" vertex="1" parent="1">
          <mxGeometry x="261" y="360" width="90" height="60" as="geometry" />
        </mxCell>
        <mxCell id="OHNvfokxidkYyMTphVtY-9" value="" style="endArrow=none;html=1;rounded=0;exitX=0.25;exitY=0;exitDx=0;exitDy=0;entryX=0.5;entryY=1;entryDx=0;entryDy=0;" edge="1" parent="1" source="OHNvfokxidkYyMTphVtY-2" target="OHNvfokxidkYyMTphVtY-6">
          <mxGeometry width="50" height="50" relative="1" as="geometry">
            <mxPoint x="410" y="542.5" as="sourcePoint" />
            <mxPoint x="460" y="492.5" as="targetPoint" />
          </mxGeometry>
        </mxCell>
        <mxCell id="OHNvfokxidkYyMTphVtY-10" value="" style="endArrow=none;html=1;rounded=0;exitX=0.5;exitY=0;exitDx=0;exitDy=0;entryX=0.5;entryY=1;entryDx=0;entryDy=0;" edge="1" parent="1" source="OHNvfokxidkYyMTphVtY-2" target="OHNvfokxidkYyMTphVtY-7">
          <mxGeometry width="50" height="50" relative="1" as="geometry">
            <mxPoint x="340" y="522.5" as="sourcePoint" />
            <mxPoint x="390" y="472.5" as="targetPoint" />
          </mxGeometry>
        </mxCell>
        <mxCell id="OHNvfokxidkYyMTphVtY-11" value="" style="endArrow=none;html=1;rounded=0;exitX=0.75;exitY=0;exitDx=0;exitDy=0;entryX=0.5;entryY=1;entryDx=0;entryDy=0;" edge="1" parent="1" source="OHNvfokxidkYyMTphVtY-2" target="OHNvfokxidkYyMTphVtY-8">
          <mxGeometry width="50" height="50" relative="1" as="geometry">
            <mxPoint x="390" y="532.5" as="sourcePoint" />
            <mxPoint x="440" y="482.5" as="targetPoint" />
          </mxGeometry>
        </mxCell>
        <mxCell id="OHNvfokxidkYyMTphVtY-12" value="educational" style="ellipse;whiteSpace=wrap;html=1;" vertex="1" parent="1">
          <mxGeometry x="475.5" y="340" width="80" height="55" as="geometry" />
        </mxCell>
        <mxCell id="OHNvfokxidkYyMTphVtY-13" value="sports" style="ellipse;whiteSpace=wrap;html=1;" vertex="1" parent="1">
          <mxGeometry x="580" y="340" width="80" height="55" as="geometry" />
        </mxCell>
        <mxCell id="OHNvfokxidkYyMTphVtY-14" value="entertainment" style="ellipse;whiteSpace=wrap;html=1;" vertex="1" parent="1">
          <mxGeometry x="690" y="345" width="80" height="55" as="geometry" />
        </mxCell>
        <mxCell id="OHNvfokxidkYyMTphVtY-15" value="Persons" style="ellipse;whiteSpace=wrap;html=1;" vertex="1" parent="1">
          <mxGeometry x="50.5" y="820" width="80" height="55" as="geometry" />
        </mxCell>
        <mxCell id="OHNvfokxidkYyMTphVtY-16" value="Events_Name" style="ellipse;whiteSpace=wrap;html=1;" vertex="1" parent="1">
          <mxGeometry x="255.5" y="820" width="80" height="55" as="geometry" />
        </mxCell>
        <mxCell id="OHNvfokxidkYyMTphVtY-17" value="emojis" style="ellipse;whiteSpace=wrap;html=1;" vertex="1" parent="1">
          <mxGeometry x="500" y="795" width="80" height="55" as="geometry" />
        </mxCell>
        <mxCell id="OHNvfokxidkYyMTphVtY-18" value="text" style="ellipse;whiteSpace=wrap;html=1;" vertex="1" parent="1">
          <mxGeometry x="615" y="810" width="80" height="55" as="geometry" />
        </mxCell>
        <mxCell id="OHNvfokxidkYyMTphVtY-19" value="rating/numeric data" style="ellipse;whiteSpace=wrap;html=1;" vertex="1" parent="1">
          <mxGeometry x="720" y="810" width="80" height="55" as="geometry" />
        </mxCell>
        <mxCell id="OHNvfokxidkYyMTphVtY-20" value="" style="endArrow=none;html=1;rounded=0;entryX=0.5;entryY=1;entryDx=0;entryDy=0;exitX=0.25;exitY=0;exitDx=0;exitDy=0;" edge="1" parent="1" source="OHNvfokxidkYyMTphVtY-1" target="OHNvfokxidkYyMTphVtY-12">
          <mxGeometry width="50" height="50" relative="1" as="geometry">
            <mxPoint x="410.5" y="572.5" as="sourcePoint" />
            <mxPoint x="460.5" y="522.5" as="targetPoint" />
          </mxGeometry>
        </mxCell>
        <mxCell id="OHNvfokxidkYyMTphVtY-21" value="" style="endArrow=none;html=1;rounded=0;entryX=0.5;entryY=1;entryDx=0;entryDy=0;exitX=0.5;exitY=0;exitDx=0;exitDy=0;" edge="1" parent="1" source="OHNvfokxidkYyMTphVtY-1" target="OHNvfokxidkYyMTphVtY-13">
          <mxGeometry width="50" height="50" relative="1" as="geometry">
            <mxPoint x="390.5" y="532.5" as="sourcePoint" />
            <mxPoint x="440.5" y="482.5" as="targetPoint" />
          </mxGeometry>
        </mxCell>
        <mxCell id="OHNvfokxidkYyMTphVtY-22" value="" style="endArrow=none;html=1;rounded=0;entryX=0.5;entryY=1;entryDx=0;entryDy=0;exitX=0.75;exitY=0;exitDx=0;exitDy=0;" edge="1" parent="1" source="OHNvfokxidkYyMTphVtY-1" target="OHNvfokxidkYyMTphVtY-14">
          <mxGeometry width="50" height="50" relative="1" as="geometry">
            <mxPoint x="380.5" y="522.5" as="sourcePoint" />
            <mxPoint x="390.5" y="482.5" as="targetPoint" />
          </mxGeometry>
        </mxCell>
        <mxCell id="OHNvfokxidkYyMTphVtY-23" value="" style="endArrow=none;html=1;rounded=0;exitX=0.5;exitY=0;exitDx=0;exitDy=0;entryX=0.25;entryY=1;entryDx=0;entryDy=0;" edge="1" parent="1" source="OHNvfokxidkYyMTphVtY-15" target="OHNvfokxidkYyMTphVtY-3">
          <mxGeometry width="50" height="50" relative="1" as="geometry">
            <mxPoint x="180.5" y="960" as="sourcePoint" />
            <mxPoint x="180.5" y="810" as="targetPoint" />
          </mxGeometry>
        </mxCell>
        <mxCell id="OHNvfokxidkYyMTphVtY-24" value="" style="endArrow=none;html=1;rounded=0;exitX=0.75;exitY=1;exitDx=0;exitDy=0;entryX=0.5;entryY=0;entryDx=0;entryDy=0;" edge="1" parent="1" source="OHNvfokxidkYyMTphVtY-3" target="OHNvfokxidkYyMTphVtY-16">
          <mxGeometry width="50" height="50" relative="1" as="geometry">
            <mxPoint x="270.5" y="910" as="sourcePoint" />
            <mxPoint x="320.5" y="860" as="targetPoint" />
          </mxGeometry>
        </mxCell>
        <mxCell id="OHNvfokxidkYyMTphVtY-25" value="" style="endArrow=none;html=1;rounded=0;exitX=0.5;exitY=0;exitDx=0;exitDy=0;entryX=0.25;entryY=1;entryDx=0;entryDy=0;" edge="1" parent="1" source="OHNvfokxidkYyMTphVtY-17" target="OHNvfokxidkYyMTphVtY-4">
          <mxGeometry width="50" height="50" relative="1" as="geometry">
            <mxPoint x="450" y="750" as="sourcePoint" />
            <mxPoint x="500" y="700" as="targetPoint" />
          </mxGeometry>
        </mxCell>
        <mxCell id="OHNvfokxidkYyMTphVtY-26" value="" style="endArrow=none;html=1;rounded=0;exitX=0.5;exitY=0;exitDx=0;exitDy=0;entryX=0.5;entryY=1;entryDx=0;entryDy=0;" edge="1" parent="1" source="OHNvfokxidkYyMTphVtY-18" target="OHNvfokxidkYyMTphVtY-4">
          <mxGeometry width="50" height="50" relative="1" as="geometry">
            <mxPoint x="330" y="770" as="sourcePoint" />
            <mxPoint x="380" y="720" as="targetPoint" />
          </mxGeometry>
        </mxCell>
        <mxCell id="OHNvfokxidkYyMTphVtY-27" value="cultural/ethics" style="ellipse;whiteSpace=wrap;html=1;" vertex="1" parent="1">
          <mxGeometry x="742.5" y="457.5" width="85" height="50" as="geometry" />
        </mxCell>
        <mxCell id="OHNvfokxidkYyMTphVtY-28" value="Special Symbols" style="ellipse;whiteSpace=wrap;html=1;" vertex="1" parent="1">
          <mxGeometry x="779.75" y="715" width="70" height="50" as="geometry" />
        </mxCell>
        <mxCell id="OHNvfokxidkYyMTphVtY-29" value="TagID" style="ellipse;whiteSpace=wrap;html=1;" vertex="1" parent="1">
          <mxGeometry x="150" y="850" width="85" height="52.5" as="geometry" />
        </mxCell>
        <mxCell id="OHNvfokxidkYyMTphVtY-30" value="" style="endArrow=none;html=1;rounded=0;entryX=0.5;entryY=1;entryDx=0;entryDy=0;exitX=0.5;exitY=0;exitDx=0;exitDy=0;" edge="1" parent="1" source="OHNvfokxidkYyMTphVtY-29" target="OHNvfokxidkYyMTphVtY-3">
          <mxGeometry width="50" height="50" relative="1" as="geometry">
            <mxPoint x="400.5" y="740" as="sourcePoint" />
            <mxPoint x="450.5" y="690" as="targetPoint" />
            <Array as="points" />
          </mxGeometry>
        </mxCell>
        <mxCell id="OHNvfokxidkYyMTphVtY-31" value="" style="endArrow=none;html=1;rounded=0;entryX=0.5;entryY=0;entryDx=0;entryDy=0;exitX=0.75;exitY=1;exitDx=0;exitDy=0;" edge="1" parent="1" source="OHNvfokxidkYyMTphVtY-4" target="OHNvfokxidkYyMTphVtY-19">
          <mxGeometry width="50" height="50" relative="1" as="geometry">
            <mxPoint x="360" y="810" as="sourcePoint" />
            <mxPoint x="410" y="760" as="targetPoint" />
          </mxGeometry>
        </mxCell>
        <mxCell id="OHNvfokxidkYyMTphVtY-32" value="" style="edgeStyle=entityRelationEdgeStyle;fontSize=12;html=1;endArrow=ERmany;startArrow=ERmany;rounded=0;entryX=1;entryY=0.5;entryDx=0;entryDy=0;" edge="1" parent="1">
          <mxGeometry width="100" height="100" relative="1" as="geometry">
            <mxPoint x="135.5" y="730.5" as="sourcePoint" />
            <mxPoint x="115" y="473" as="targetPoint" />
            <Array as="points">
              <mxPoint x="90.5" y="670" />
              <mxPoint x="130.5" y="670" />
              <mxPoint x="85.5" y="680" />
              <mxPoint x="120.5" y="640" />
              <mxPoint x="120.5" y="670" />
            </Array>
          </mxGeometry>
        </mxCell>
        <mxCell id="OHNvfokxidkYyMTphVtY-33" value="n : m" style="text;strokeColor=none;align=center;fillColor=none;html=1;verticalAlign=middle;whiteSpace=wrap;rounded=0;" vertex="1" parent="1">
          <mxGeometry x="90" y="630" width="60" height="30" as="geometry" />
        </mxCell>
        <mxCell id="OHNvfokxidkYyMTphVtY-34" value="" style="edgeStyle=entityRelationEdgeStyle;fontSize=12;html=1;endArrow=ERoneToMany;rounded=0;entryX=1;entryY=0.5;entryDx=0;entryDy=0;exitX=0;exitY=0.5;exitDx=0;exitDy=0;" edge="1" parent="1" source="OHNvfokxidkYyMTphVtY-1" target="OHNvfokxidkYyMTphVtY-2">
          <mxGeometry width="100" height="100" relative="1" as="geometry">
            <mxPoint x="300.5" y="610" as="sourcePoint" />
            <mxPoint x="400.5" y="510" as="targetPoint" />
          </mxGeometry>
        </mxCell>
        <mxCell id="OHNvfokxidkYyMTphVtY-35" value="n : 1" style="text;html=1;align=center;verticalAlign=middle;resizable=0;points=[];autosize=1;strokeColor=none;fillColor=none;" vertex="1" parent="1">
          <mxGeometry x="385.5" y="448" width="50" height="30" as="geometry" />
        </mxCell>
        <mxCell id="OHNvfokxidkYyMTphVtY-36" value="" style="endArrow=none;html=1;rounded=0;entryX=1;entryY=0.5;entryDx=0;entryDy=0;exitX=0;exitY=0.5;exitDx=0;exitDy=0;" edge="1" parent="1" source="OHNvfokxidkYyMTphVtY-28" target="OHNvfokxidkYyMTphVtY-4">
          <mxGeometry width="50" height="50" relative="1" as="geometry">
            <mxPoint x="769.9999999999995" y="735" as="sourcePoint" />
            <mxPoint x="460" y="720" as="targetPoint" />
          </mxGeometry>
        </mxCell>
        <mxCell id="OHNvfokxidkYyMTphVtY-37" value="" style="edgeStyle=entityRelationEdgeStyle;fontSize=12;html=1;endArrow=ERmany;startArrow=ERmany;rounded=0;entryX=0.5;entryY=1;entryDx=0;entryDy=0;exitX=0.25;exitY=0;exitDx=0;exitDy=0;" edge="1" parent="1" source="OHNvfokxidkYyMTphVtY-4" target="OHNvfokxidkYyMTphVtY-2">
          <mxGeometry width="100" height="100" relative="1" as="geometry">
            <mxPoint x="310.5" y="690" as="sourcePoint" />
            <mxPoint x="410.5" y="590" as="targetPoint" />
          </mxGeometry>
        </mxCell>
        <mxCell id="OHNvfokxidkYyMTphVtY-38" value="n : m" style="text;html=1;align=center;verticalAlign=middle;resizable=0;points=[];autosize=1;strokeColor=none;fillColor=none;" vertex="1" parent="1">
          <mxGeometry x="325.5" y="618" width="50" height="30" as="geometry" />
        </mxCell>
        <mxCell id="OHNvfokxidkYyMTphVtY-39" value="Relatons :&lt;br&gt;&lt;br&gt;-&amp;gt; n posts m comments&lt;br&gt;-&amp;gt; 1 category n Posts&lt;br&gt;-&amp;gt; n posts m tags&lt;br&gt;-&amp;gt; n comments m tags&lt;br&gt;-&amp;gt;&amp;nbsp;" style="text;html=1;align=center;verticalAlign=middle;resizable=0;points=[];autosize=1;strokeColor=none;fillColor=none;" vertex="1" parent="1">
          <mxGeometry x="580" y="10" width="150" height="110" as="geometry" />
        </mxCell>
        <mxCell id="OHNvfokxidkYyMTphVtY-40" value="" style="edgeStyle=entityRelationEdgeStyle;fontSize=12;html=1;endArrow=ERmany;startArrow=ERmany;rounded=0;entryX=0;entryY=0.5;entryDx=0;entryDy=0;exitX=1;exitY=0.5;exitDx=0;exitDy=0;" edge="1" parent="1" source="OHNvfokxidkYyMTphVtY-3" target="OHNvfokxidkYyMTphVtY-4">
          <mxGeometry width="100" height="100" relative="1" as="geometry">
            <mxPoint x="370" y="800" as="sourcePoint" />
            <mxPoint x="470" y="700" as="targetPoint" />
          </mxGeometry>
        </mxCell>
        <mxCell id="OHNvfokxidkYyMTphVtY-41" value="Post_ID" style="ellipse;whiteSpace=wrap;html=1;" vertex="1" parent="1">
          <mxGeometry x="50.5" y="260" width="99.5" height="60" as="geometry" />
        </mxCell>
        <mxCell id="OHNvfokxidkYyMTphVtY-42" value="Post_Type" style="ellipse;whiteSpace=wrap;html=1;" vertex="1" parent="1">
          <mxGeometry x="181" y="260" width="99.5" height="60" as="geometry" />
        </mxCell>
        <mxCell id="OHNvfokxidkYyMTphVtY-43" value="tag_type" style="ellipse;whiteSpace=wrap;html=1;" vertex="1" parent="1">
          <mxGeometry x="50.5" y="930" width="99.5" height="60" as="geometry" />
        </mxCell>
        <mxCell id="OHNvfokxidkYyMTphVtY-44" value="Cat_ID" style="ellipse;whiteSpace=wrap;html=1;" vertex="1" parent="1">
          <mxGeometry x="510" y="250" width="99.5" height="60" as="geometry" />
        </mxCell>
        <mxCell id="OHNvfokxidkYyMTphVtY-45" value="Cat_Type" style="ellipse;whiteSpace=wrap;html=1;" vertex="1" parent="1">
          <mxGeometry x="680.25" y="250" width="99.5" height="60" as="geometry" />
        </mxCell>
        <mxCell id="OHNvfokxidkYyMTphVtY-46" value="Com_id" style="ellipse;whiteSpace=wrap;html=1;" vertex="1" parent="1">
          <mxGeometry x="570.25" y="930" width="99.5" height="60" as="geometry" />
        </mxCell>
        <mxCell id="OHNvfokxidkYyMTphVtY-47" value="Comment_type" style="ellipse;whiteSpace=wrap;html=1;" vertex="1" parent="1">
          <mxGeometry x="720" y="930" width="99.5" height="60" as="geometry" />
        </mxCell>
        <mxCell id="OHNvfokxidkYyMTphVtY-48" value="" style="endArrow=none;html=1;rounded=0;entryX=0;entryY=0.5;entryDx=0;entryDy=0;exitX=1;exitY=0.5;exitDx=0;exitDy=0;" edge="1" parent="1" source="OHNvfokxidkYyMTphVtY-1" target="OHNvfokxidkYyMTphVtY-27">
          <mxGeometry width="50" height="50" relative="1" as="geometry">
            <mxPoint x="470" y="570" as="sourcePoint" />
            <mxPoint x="520" y="520" as="targetPoint" />
          </mxGeometry>
        </mxCell>
      </root>
    </mxGraphModel>
  </diagram>
</mxfile>
